<?xml version='1.0' encoding='utf-8'?>
<svg xmlns="http://www.w3.org/2000/svg" x="0in" version="1.2" height="0.1in" viewBox="0 0 12000 1000" y="0in"  baseProfile="tiny" width="1.2in">
    <desc>
        <referenceFile>generic_male_pin_header_12_100mil_bread.svg</referenceFile>
    </desc>
    <g  id="breadboard" gorn="0.0">
        <polygon points="217.113,0 0,217.113 0,782.747 217.113,1000 782.747,1000 1000,782.747 1000,217.113 782.747,0 217.113,0"  fill="#404040"/>
        <rect x="306.153" height="387.692" y="306.153"  fill="none" id="connector0pin" width="387.692" gorn="0.0.1"/>
        <rect x="349.77" height="314.210" y="342.964"  fill="none" id="connector0terminal" width="300.597" gorn="0.0.2"/>
        <rect x="340.463" height="319.211" y="340.463"  fill="#8D8C8C" width="319.211"/>
        <rect x="417.974" height="164.189" y="417.974"  fill="#8C8663" width="164.189"/>
        <polygon points="340.463,340.463 417.974,417.974 582.025,417.974 659.674,340.463"  fill="#B8AF82"/>
        <polygon points="582.025,582.025 582.025,417.974 659.674,340.463 659.674,659.674 &#x9;"  fill="#80795B"/>
        <polygon points="417.974,582.025 582.025,582.025 659.674,659.674 340.463,659.674&#x9;&#x9;"  fill="#5E5B43"/>
        <polygon points="340.463,340.463 417.974,417.974 417.974,582.025 340.463,659.674 &#x9;"  fill="#9A916C"/>
        <polygon points="1217.11,0 1000,217.113 1000,782.747 1217.11,1000 1782.75,1000 2000,782.747 2000,217.113 1782.75,0 1217.11,0"  fill="#404040"/>
        <rect x="1306.15" height="387.692" y="306.153"  fill="none" id="connector1pin" width="387.692" gorn="0.0.10"/>
        <rect x="1349.77" height="314.210" y="342.964"  fill="none" id="connector1terminal" width="300.597" gorn="0.0.11"/>
        <rect x="1340.46" height="319.211" y="340.463"  fill="#8D8C8C" width="319.211"/>
        <rect x="1417.97" height="164.189" y="417.974"  fill="#8C8663" width="164.189"/>
        <polygon points="1340.46,340.463 1417.97,417.974 1582.03,417.974 1659.67,340.463"  fill="#B8AF82"/>
        <polygon points="1582.03,582.025 1582.03,417.974 1659.67,340.463 1659.67,659.674 &#x9;"  fill="#80795B"/>
        <polygon points="1417.97,582.025 1582.03,582.025 1659.67,659.674 1340.46,659.674&#x9;&#x9;"  fill="#5E5B43"/>
        <polygon points="1340.46,340.463 1417.97,417.974 1417.97,582.025 1340.46,659.674 &#x9;"  fill="#9A916C"/>
        <polygon points="2217.11,0 2000,217.113 2000,782.747 2217.11,1000 2782.75,1000 3000,782.747 3000,217.113 2782.75,0 2217.11,0"  fill="#404040"/>
        <rect x="2306.15" height="387.692" y="306.153"  fill="none" id="connector2pin" width="387.692" gorn="0.0.19"/>
        <rect x="2349.77" height="314.210" y="342.964"  fill="none" id="connector2terminal" width="300.597" gorn="0.0.20"/>
        <rect x="2340.46" height="319.211" y="340.463"  fill="#8D8C8C" width="319.211"/>
        <rect x="2417.97" height="164.189" y="417.974"  fill="#8C8663" width="164.189"/>
        <polygon points="2340.46,340.463 2417.97,417.974 2582.03,417.974 2659.67,340.463"  fill="#B8AF82"/>
        <polygon points="2582.03,582.025 2582.03,417.974 2659.67,340.463 2659.67,659.674 &#x9;"  fill="#80795B"/>
        <polygon points="2417.97,582.025 2582.03,582.025 2659.67,659.674 2340.46,659.674&#x9;&#x9;"  fill="#5E5B43"/>
        <polygon points="2340.46,340.463 2417.97,417.974 2417.97,582.025 2340.46,659.674 &#x9;"  fill="#9A916C"/>
        <polygon points="3217.11,0 3000,217.113 3000,782.747 3217.11,1000 3782.75,1000 4000,782.747 4000,217.113 3782.75,0 3217.11,0"  fill="#404040"/>
        <rect x="3306.15" height="387.692" y="306.153"  fill="none" id="connector3pin" width="387.692" gorn="0.0.28"/>
        <rect x="3349.77" height="314.210" y="342.964"  fill="none" id="connector3terminal" width="300.597" gorn="0.0.29"/>
        <rect x="3340.46" height="319.211" y="340.463"  fill="#8D8C8C" width="319.211"/>
        <rect x="3417.97" height="164.189" y="417.974"  fill="#8C8663" width="164.189"/>
        <polygon points="3340.46,340.463 3417.97,417.974 3582.03,417.974 3659.67,340.463"  fill="#B8AF82"/>
        <polygon points="3582.03,582.025 3582.03,417.974 3659.67,340.463 3659.67,659.674 &#x9;"  fill="#80795B"/>
        <polygon points="3417.97,582.025 3582.03,582.025 3659.67,659.674 3340.46,659.674&#x9;&#x9;"  fill="#5E5B43"/>
        <polygon points="3340.46,340.463 3417.97,417.974 3417.97,582.025 3340.46,659.674 &#x9;"  fill="#9A916C"/>
        <polygon points="4217.11,0 4000,217.113 4000,782.747 4217.11,1000 4782.75,1000 5000,782.747 5000,217.113 4782.75,0 4217.11,0"  fill="#404040"/>
        <rect x="4306.15" height="387.692" y="306.153"  fill="none" id="connector4pin" width="387.692" gorn="0.0.37"/>
        <rect x="4349.77" height="314.210" y="342.964"  fill="none" id="connector4terminal" width="300.597" gorn="0.0.38"/>
        <rect x="4340.46" height="319.211" y="340.463"  fill="#8D8C8C" width="319.211"/>
        <rect x="4417.97" height="164.189" y="417.974"  fill="#8C8663" width="164.189"/>
        <polygon points="4340.46,340.463 4417.97,417.974 4582.02,417.974 4659.67,340.463"  fill="#B8AF82"/>
        <polygon points="4582.02,582.025 4582.02,417.974 4659.67,340.463 4659.67,659.674 &#x9;"  fill="#80795B"/>
        <polygon points="4417.97,582.025 4582.02,582.025 4659.67,659.674 4340.46,659.674&#x9;&#x9;"  fill="#5E5B43"/>
        <polygon points="4340.46,340.463 4417.97,417.974 4417.97,582.025 4340.46,659.674 &#x9;"  fill="#9A916C"/>
        <polygon points="5217.11,0 5000,217.113 5000,782.747 5217.11,1000 5782.75,1000 6000,782.747 6000,217.113 5782.75,0 5217.11,0"  fill="#404040"/>
        <rect x="5306.15" height="387.692" y="306.153"  fill="none" id="connector5pin" width="387.692" gorn="0.0.46"/>
        <rect x="5349.77" height="314.210" y="342.964"  fill="none" id="connector5terminal" width="300.597" gorn="0.0.47"/>
        <rect x="5340.46" height="319.211" y="340.463"  fill="#8D8C8C" width="319.211"/>
        <rect x="5417.97" height="164.189" y="417.974"  fill="#8C8663" width="164.189"/>
        <polygon points="5340.46,340.463 5417.97,417.974 5582.02,417.974 5659.67,340.463"  fill="#B8AF82"/>
        <polygon points="5582.02,582.025 5582.02,417.974 5659.67,340.463 5659.67,659.674 &#x9;"  fill="#80795B"/>
        <polygon points="5417.97,582.025 5582.02,582.025 5659.67,659.674 5340.46,659.674&#x9;&#x9;"  fill="#5E5B43"/>
        <polygon points="5340.46,340.463 5417.97,417.974 5417.97,582.025 5340.46,659.674 &#x9;"  fill="#9A916C"/>
        <polygon points="6217.11,0 6000,217.113 6000,782.747 6217.11,1000 6782.75,1000 7000,782.747 7000,217.113 6782.75,0 6217.11,0"  fill="#404040"/>
        <rect x="6306.15" height="387.692" y="306.153"  fill="none" id="connector6pin" width="387.692" gorn="0.0.55"/>
        <rect x="6349.77" height="314.210" y="342.964"  fill="none" id="connector6terminal" width="300.597" gorn="0.0.56"/>
        <rect x="6340.46" height="319.211" y="340.463"  fill="#8D8C8C" width="319.211"/>
        <rect x="6417.97" height="164.189" y="417.974"  fill="#8C8663" width="164.189"/>
        <polygon points="6340.46,340.463 6417.97,417.974 6582.02,417.974 6659.67,340.463"  fill="#B8AF82"/>
        <polygon points="6582.02,582.025 6582.02,417.974 6659.67,340.463 6659.67,659.674 &#x9;"  fill="#80795B"/>
        <polygon points="6417.97,582.025 6582.02,582.025 6659.67,659.674 6340.46,659.674&#x9;&#x9;"  fill="#5E5B43"/>
        <polygon points="6340.46,340.463 6417.97,417.974 6417.97,582.025 6340.46,659.674 &#x9;"  fill="#9A916C"/>
        <polygon points="7217.11,0 7000,217.113 7000,782.747 7217.11,1000 7782.75,1000 8000,782.747 8000,217.113 7782.75,0 7217.11,0"  fill="#404040"/>
        <rect x="7306.15" height="387.692" y="306.153"  fill="none" id="connector7pin" width="387.692" gorn="0.0.64"/>
        <rect x="7349.77" height="314.210" y="342.964"  fill="none" id="connector7terminal" width="300.597" gorn="0.0.65"/>
        <rect x="7340.46" height="319.211" y="340.463"  fill="#8D8C8C" width="319.211"/>
        <rect x="7417.97" height="164.189" y="417.974"  fill="#8C8663" width="164.189"/>
        <polygon points="7340.46,340.463 7417.97,417.974 7582.02,417.974 7659.67,340.463"  fill="#B8AF82"/>
        <polygon points="7582.02,582.025 7582.02,417.974 7659.67,340.463 7659.67,659.674 &#x9;"  fill="#80795B"/>
        <polygon points="7417.97,582.025 7582.02,582.025 7659.67,659.674 7340.46,659.674&#x9;&#x9;"  fill="#5E5B43"/>
        <polygon points="7340.46,340.463 7417.97,417.974 7417.97,582.025 7340.46,659.674 &#x9;"  fill="#9A916C"/>
        <polygon points="8217.11,0 8000,217.113 8000,782.747 8217.11,1000 8782.75,1000 9000,782.747 9000,217.113 8782.75,0 8217.11,0"  fill="#404040"/>
        <rect x="8306.15" height="387.692" y="306.153"  fill="none" id="connector8pin" width="387.692" gorn="0.0.73"/>
        <rect x="8349.77" height="314.210" y="342.964"  fill="none" id="connector8terminal" width="300.597" gorn="0.0.74"/>
        <rect x="8340.46" height="319.211" y="340.463"  fill="#8D8C8C" width="319.211"/>
        <rect x="8417.97" height="164.189" y="417.974"  fill="#8C8663" width="164.189"/>
        <polygon points="8340.46,340.463 8417.97,417.974 8582.02,417.974 8659.67,340.463"  fill="#B8AF82"/>
        <polygon points="8582.02,582.025 8582.02,417.974 8659.67,340.463 8659.67,659.674 &#x9;"  fill="#80795B"/>
        <polygon points="8417.97,582.025 8582.02,582.025 8659.67,659.674 8340.46,659.674&#x9;&#x9;"  fill="#5E5B43"/>
        <polygon points="8340.46,340.463 8417.97,417.974 8417.97,582.025 8340.46,659.674 &#x9;"  fill="#9A916C"/>
        <polygon points="9217.11,0 9000,217.113 9000,782.747 9217.11,1000 9782.75,1000 10000,782.747 10000,217.113 9782.75,0 9217.11,0"  fill="#404040"/>
        <rect x="9306.15" height="387.692" y="306.153"  fill="none" id="connector9pin" width="387.692" gorn="0.0.82"/>
        <rect x="9349.77" height="314.210" y="342.964"  fill="none" id="connector9terminal" width="300.597" gorn="0.0.83"/>
        <rect x="9340.46" height="319.211" y="340.463"  fill="#8D8C8C" width="319.211"/>
        <rect x="9417.97" height="164.189" y="417.974"  fill="#8C8663" width="164.189"/>
        <polygon points="9340.46,340.463 9417.97,417.974 9582.02,417.974 9659.67,340.463"  fill="#B8AF82"/>
        <polygon points="9582.02,582.025 9582.02,417.974 9659.67,340.463 9659.67,659.674 &#x9;"  fill="#80795B"/>
        <polygon points="9417.97,582.025 9582.02,582.025 9659.67,659.674 9340.46,659.674&#x9;&#x9;"  fill="#5E5B43"/>
        <polygon points="9340.46,340.463 9417.97,417.974 9417.97,582.025 9340.46,659.674 &#x9;"  fill="#9A916C"/>
        <polygon points="10217.1,0 10000,217.113 10000,782.747 10217.1,1000 10782.7,1000 11000,782.747 11000,217.113 10782.7,0 10217.1,0"  fill="#404040"/>
        <rect x="10306.2" height="387.692" y="306.153"  fill="none" id="connector10pin" width="387.692" gorn="0.0.91"/>
        <rect x="10349.8" height="314.210" y="342.964"  fill="none" id="connector10terminal" width="300.597" gorn="0.0.92"/>
        <rect x="10340.5" height="319.211" y="340.463"  fill="#8D8C8C" width="319.211"/>
        <rect x="10418" height="164.189" y="417.974"  fill="#8C8663" width="164.189"/>
        <polygon points="10340.5,340.463 10418,417.974 10582,417.974 10659.7,340.463"  fill="#B8AF82"/>
        <polygon points="10582,582.025 10582,417.974 10659.7,340.463 10659.7,659.674 &#x9;"  fill="#80795B"/>
        <polygon points="10418,582.025 10582,582.025 10659.7,659.674 10340.5,659.674&#x9;&#x9;"  fill="#5E5B43"/>
        <polygon points="10340.5,340.463 10418,417.974 10418,582.025 10340.5,659.674 &#x9;"  fill="#9A916C"/>
        <polygon points="11217.1,0 11000,217.113 11000,782.747 11217.1,1000 11782.7,1000 12000,782.747 12000,217.113 11782.7,0 11217.1,0"  fill="#404040"/>
        <rect x="11306.2" height="387.692" y="306.153"  fill="none" id="connector11pin" width="387.692" gorn="0.0.100"/>
        <rect x="11349.8" height="314.210" y="342.964"  fill="none" id="connector11terminal" width="300.597" gorn="0.0.101"/>
        <rect x="11340.5" height="319.211" y="340.463"  fill="#8D8C8C" width="319.211"/>
        <rect x="11418" height="164.189" y="417.974"  fill="#8C8663" width="164.189"/>
        <polygon points="11340.5,340.463 11418,417.974 11582,417.974 11659.7,340.463"  fill="#B8AF82"/>
        <polygon points="11582,582.025 11582,417.974 11659.7,340.463 11659.7,659.674 &#x9;"  fill="#80795B"/>
        <polygon points="11418,582.025 11582,582.025 11659.7,659.674 11340.5,659.674&#x9;&#x9;"  fill="#5E5B43"/>
        <polygon points="11340.5,340.463 11418,417.974 11418,582.025 11340.5,659.674 &#x9;"  fill="#9A916C"/>
    </g>
</svg>
